<svg width="133" height="33" viewBox="0 0 133 33" fill="none" xmlns="http://www.w3.org/2000/svg">
<path d="M130.249 8.16896H115.535C115.535 7.58546 115.407 7.00196 115.088 6.54813L112.017 1.29666V1.23183L111.953 1.16699C111.441 0.453831 110.673 0 109.842 0C109.266 0 108.114 0.194499 107.283 1.68566L103.572 8.10413C103.572 8.10413 103.572 8.10413 103.508 8.16896H23.0303C22.9663 7.65029 22.7744 7.0668 22.2626 6.61297L22.7744 5.77014V5.7053C23.0303 5.18664 23.1582 4.66798 23.1582 4.14931C23.1582 2.59332 22.0067 1.42633 20.4074 1.42633H14.9057C14.202 1.42633 13.4983 1.62083 12.7946 2.07466C12.1549 2.46365 11.6431 2.98232 11.3232 3.63065L0.639731 22.4322C0.191919 23.1454 0 23.9234 0 24.7662C0 25.4145 0.127946 25.9332 0.447811 26.4519L3.45455 31.7033C3.90236 32.4813 4.73401 33 5.62963 33C6.20539 33 7.3569 32.8055 8.18855 31.3143L12.0269 24.6365C12.3468 24.7662 12.6667 24.831 13.0505 24.831H37.8081C38.5118 24.831 39.2155 24.6365 39.9192 24.1827C40.5589 23.7937 41.0707 23.275 41.3906 22.6267L44.9731 16.4027C45.4209 16.7917 46.0606 16.9862 46.7643 16.9862H50.7946L48.8114 20.4872C48.5556 21.0059 48.4276 21.5246 48.4276 22.0432C48.4276 23.5992 49.5791 24.7662 51.1785 24.7662H123.34C124.044 24.7662 124.747 24.5717 125.387 24.1179C126.027 23.7289 126.539 23.2102 126.859 22.5619L132.616 12.5128C132.872 11.9941 133 11.4754 133 10.9568C133 9.33595 131.848 8.16896 130.249 8.16896Z" fill="white"/>
<path d="M6.39728 30.2122C6.14139 30.6012 5.94947 30.7957 5.6296 30.7957C5.50166 30.7957 5.37371 30.7308 5.30974 30.5363L2.23903 25.2849C2.17506 25.1552 2.11108 24.9607 2.11108 24.7014C2.11108 24.2475 2.23903 23.8585 2.43095 23.4695L13.1145 4.66796C13.3064 4.34379 13.5623 4.08446 13.8821 3.88996C14.202 3.69546 14.5858 3.5658 14.8417 3.5658H20.3434C20.7272 3.5658 20.9831 3.76029 20.9831 4.14929C20.9831 4.34379 20.9192 4.53829 20.7912 4.73279L19.5118 7.00194C19.3838 7.19644 19.3198 7.39094 19.3198 7.58544C19.3198 7.97444 19.5118 8.16894 19.9596 8.16894C20.5353 8.16894 20.7912 8.2986 20.7912 8.55794C20.7912 8.81727 20.5993 8.94693 20.2155 9.14143C19.8956 9.2711 19.5757 9.33593 19.3198 9.33593C19 9.33593 18.6801 9.4656 18.3602 9.6601C18.0404 9.8546 17.7845 10.1139 17.5926 10.4381L6.39728 30.2122Z" fill="#D3202A"/>
<path d="M35.5689 10.3084C35.9527 10.3084 36.2086 10.5029 36.2086 10.8919C36.2086 11.0864 36.1447 11.2809 36.0167 11.4754L30.2591 21.5894C30.0672 21.9135 29.8113 22.1728 29.4915 22.3673C29.1716 22.5618 28.8517 22.6915 28.5319 22.6915H13.0504C12.6026 22.6915 12.4106 22.497 12.4106 22.108C12.4106 21.9135 12.4746 21.719 12.6026 21.5245L18.3601 11.4106C18.5521 11.0864 18.808 10.8271 19.1278 10.6326C19.4477 10.4381 19.8315 10.3084 20.0874 10.3084H35.5689V10.3084ZM27.6362 12.5776C27.7642 12.3831 27.8282 12.1886 27.8282 11.9941C27.8282 11.6051 27.6362 11.4106 27.1884 11.4106C26.8686 11.4106 26.5487 11.5402 26.2288 11.7347C25.909 11.9292 25.6531 12.1886 25.4611 12.5127L20.983 20.3575C20.8551 20.552 20.7911 20.7465 20.7911 20.941C20.7911 21.33 20.983 21.5245 21.4308 21.5245C21.7507 21.5245 22.0706 21.3949 22.3904 21.2004C22.7103 21.0059 22.9662 20.7465 23.1581 20.4224L27.6362 12.5776Z" fill="#D3202A"/>
<path d="M54.761 10.3084C55.1449 10.3084 55.4007 10.5029 55.4007 10.8919C55.4007 11.0864 55.3368 11.2809 55.2088 11.4754L53.9294 13.7446C53.7375 14.0688 53.4816 14.3281 53.1617 14.5226C52.8418 14.7171 52.522 14.8467 52.2021 14.8467H46.7004C46.2526 14.8467 46.0607 14.6522 46.0607 14.2633C46.0607 14.0688 46.1247 13.8743 46.2526 13.6798L46.8923 12.5776C47.0203 12.3831 47.0842 12.1886 47.0842 11.9941C47.0842 11.6051 46.8923 11.4106 46.4445 11.4106C46.1247 11.4106 45.8048 11.5403 45.4849 11.7348C45.1651 11.9293 44.9092 12.1886 44.7172 12.5128L39.5994 21.4597C39.4075 21.7839 39.1516 22.0432 38.8317 22.2377C38.5119 22.4322 38.192 22.5619 37.8721 22.5619H32.3704C31.9226 22.5619 31.7307 22.3674 31.7307 21.9784C31.7307 21.7839 31.7947 21.5894 31.9226 21.3949L37.6802 11.2809C37.8721 10.9568 38.128 10.6974 38.4479 10.5029C38.7678 10.3084 39.1516 10.1788 39.4075 10.1788H54.761V10.3084Z" fill="#D3202A"/>
<path d="M73.5689 10.3084C73.9527 10.3084 74.2086 10.5029 74.2086 10.8919C74.2086 11.0864 74.1446 11.2809 74.0167 11.4754L68.2591 21.5894C68.0672 21.9135 67.8113 22.1729 67.4914 22.3674C67.1716 22.5619 66.8517 22.6915 66.5318 22.6915H61.0302C60.5823 22.6915 60.3904 22.497 60.3904 22.108C60.3904 21.9135 60.4544 21.719 60.5823 21.5245L65.7002 12.5776C65.8281 12.3831 65.8921 12.1886 65.8921 11.9941C65.8921 11.6051 65.7002 11.4106 65.2524 11.4106C64.9325 11.4106 64.6126 11.5403 64.2928 11.7348C63.9729 11.9293 63.717 12.1886 63.5251 12.5128L58.4073 21.4597C58.2153 21.7839 57.9594 22.0432 57.6396 22.2377C57.3197 22.4322 56.9999 22.5619 56.68 22.5619H51.1783C50.7305 22.5619 50.5386 22.3674 50.5386 21.9784C50.5386 21.7839 50.6025 21.5894 50.7305 21.3949L56.4881 11.2809C56.68 10.9568 56.9359 10.6974 57.2557 10.5029C57.5756 10.3084 57.9595 10.1788 58.2153 10.1788H73.5689V10.3084Z" fill="#D3202A"/>
<path d="M92.6968 10.3084C93.0806 10.3084 93.3365 10.5029 93.3365 10.8919C93.3365 11.0864 93.2726 11.2809 93.1446 11.4754L87.3871 21.5894C87.1951 21.9135 86.9392 22.1729 86.6194 22.3674C86.2995 22.5619 85.9796 22.6915 85.6598 22.6915H70.1783C69.7305 22.6915 69.5386 22.497 69.5386 22.108C69.5386 21.9135 69.6025 21.719 69.7305 21.5245L72.2894 17.0511C72.4813 16.7269 72.7372 16.4676 73.0571 16.2731C73.377 16.0786 73.6968 15.9489 74.0167 15.9489H81.7574C82.0773 15.9489 82.3972 15.8192 82.717 15.6247C83.0369 15.4302 83.2928 15.1709 83.4847 14.8467L84.7642 12.6424C84.8921 12.4479 84.8921 12.2534 84.8921 12.0589C84.8921 11.6699 84.7002 11.4754 84.2524 11.4754C83.9325 11.4754 83.6126 11.6051 83.2928 11.7996C82.9729 11.9941 82.717 12.3182 82.5251 12.5776L81.8854 13.6797C81.6935 14.0039 81.4376 14.2632 81.1177 14.4577C80.7978 14.6522 80.478 14.7819 80.1581 14.7819H74.5924C74.1446 14.7819 73.9527 14.5874 73.9527 14.1984C73.9527 14.0039 74.0167 13.8094 74.1446 13.6149L75.4241 11.3458C75.616 11.0216 75.8719 10.7623 76.1918 10.5678C76.5116 10.3733 76.8955 10.2436 77.1514 10.2436H92.6968V10.3084ZM81.5655 18.1532C81.6935 17.9587 81.7574 17.7642 81.7574 17.5697C81.7574 17.1807 81.5655 16.9862 81.1177 16.9862C80.7978 16.9862 80.478 17.1159 80.1581 17.3104C79.8382 17.5049 79.5823 17.7642 79.3904 18.0884L78.111 20.3575C77.983 20.552 77.919 20.7465 77.919 20.941C77.919 21.33 78.111 21.5245 78.5588 21.5245C78.8786 21.5245 79.1985 21.3949 79.5184 21.2004C79.8382 21.0059 80.0941 20.7465 80.286 20.4224L81.5655 18.1532Z" fill="#D3202A"/>
<path d="M113.296 7.65027C113.36 7.77994 113.424 8.03927 113.424 8.2986C113.424 8.6876 113.36 9.0766 113.168 9.40076L106.195 21.5245C106.003 21.8487 105.747 22.108 105.427 22.3025C105.108 22.497 104.788 22.6267 104.468 22.6267H88.9864C88.5386 22.6267 88.3467 22.4322 88.3467 22.0432C88.3467 21.8487 88.4106 21.6542 88.5386 21.4597L94.2962 11.3458C94.4881 11.0216 94.744 10.7623 95.0639 10.5678C95.3837 10.3733 95.7676 10.2436 96.0234 10.2436H103.764C104.084 10.2436 104.34 10.1139 104.724 9.91943C105.044 9.72493 105.3 9.46559 105.491 9.14143L109.202 2.72296C109.458 2.33396 109.65 2.13947 109.906 2.13947C110.034 2.13947 110.161 2.2043 110.225 2.33396L113.296 7.65027ZM103.572 12.5776C103.7 12.3831 103.7 12.1886 103.7 11.9941C103.7 11.6051 103.508 11.4106 103.06 11.4106C102.741 11.4106 102.421 11.5403 102.101 11.7347C101.781 11.9292 101.525 12.1886 101.333 12.5127L96.8551 20.3575C96.7271 20.552 96.6632 20.7465 96.6632 20.941C96.6632 21.33 96.8551 21.5245 97.3029 21.5245C97.6228 21.5245 97.9426 21.3949 98.2625 21.2004C98.5824 21.0059 98.8383 20.7465 99.0302 20.4224L103.572 12.5776Z" fill="#D3202A"/>
<path d="M130.249 10.3084C130.633 10.3084 130.889 10.5029 130.889 10.8919C130.889 11.0864 130.825 11.2809 130.697 11.4754L124.939 21.5894C124.747 21.9135 124.492 22.1728 124.172 22.3673C123.852 22.5618 123.532 22.6915 123.212 22.6915H107.731C107.283 22.6915 107.091 22.497 107.091 22.108C107.091 21.9135 107.155 21.719 107.283 21.5245L113.04 11.4106C113.232 11.0864 113.488 10.8271 113.808 10.6326C114.128 10.4381 114.512 10.3084 114.768 10.3084H130.249V10.3084ZM122.316 12.5776C122.444 12.3831 122.508 12.1886 122.508 11.9941C122.508 11.6051 122.316 11.4106 121.869 11.4106C121.549 11.4106 121.229 11.5402 120.909 11.7347C120.589 11.9292 120.333 12.1886 120.141 12.5127L115.663 20.3575C115.535 20.552 115.471 20.7465 115.471 20.941C115.471 21.33 115.663 21.5245 116.111 21.5245C116.431 21.5245 116.751 21.3949 117.071 21.2004C117.39 21.0059 117.646 20.7465 117.838 20.4224L122.316 12.5776Z" fill="#D3202A"/>
</svg>
